<svg id="award" data-name="award" xmlns="http://www.w3.org/2000/svg" viewBox="0 0 98 137">
	<defs>
		<style>
		path {
			fill: #00a6ca;
		}
		</style>
	</defs>
	<title>award icon</title>
	<path d="M97.05,104.28,81.6,74h0l-2.75-5.39a40.52,40.52,0,0,1-8.31,6.9L72,78.32h0l11.1,21.75-7.72-1.76a6,6,0,0,0-6.78,3.47l-3.1,7.27-14-27.39h0l-5.41-10.6c1,.09,1.94.14,2.93.14A30.11,30.11,0,1,0,24.38,58.37L1,104.28a5.67,5.67,0,0,0,.6,6.1,6,6,0,0,0,6,2.17l13.66-3.11,5.5,12.89A6,6,0,0,0,32,125.94h.21a5.64,5.64,0,0,0,5.08-3.09L49,100l11.68,22.87a5.64,5.64,0,0,0,5.08,3.09H66a6,6,0,0,0,5.29-3.61l5.5-12.89,13.66,3.11a6,6,0,0,0,6-2.17A5.63,5.63,0,0,0,97.05,104.28ZM49,21.6A19.53,19.53,0,1,1,29.47,41.13,19.55,19.55,0,0,1,49,21.6ZM32.53,109.05l-3.1-7.27a6,6,0,0,0-5.51-3.61,6.1,6.1,0,0,0-1.27.14l-7.72,1.76L32,66.66l7.07,13.85h0l4,7.88Z" />
</svg>
