<svg version="1.1" id="clock" xmlns="http://www.w3.org/2000/svg" viewBox="0 0 119 137">
	<style type="text/css">
		path,rect{fill:#00A6CA;}
	</style>
	<rect x="0" y="107.9" width="75.5" height="10.6"/>
	<path d="M73.7,65.9l5.1-4.7c1.5-1.5,2.8-3.4,4.1-5.9l7.7,7.7l7-7L60.4,18.5L53,25.9l7.7,7.4c-2.4,1.2-4.4,2.6-5.9,4
		L37.6,54.6c-1,0.7-2.3,2.6-4,5.5l-7.4-7.3l-7.3,6.9l37.6,37.6l7-7.4l-7.7-7.7c2.2-0.8,4.1-2,5.9-3.7l5.1-5.2l44.9,44.9l7.4-6.9
		L73.7,65.9z M54.5,71.1c-1.2,1.2-2.8,1.8-4.8,1.8c-2,0-3.6-0.6-4.8-1.8c-3.2-3.2-3.2-6.4,0-9.6l17.3-17.3c1.2-1.2,2.8-1.8,4.8-1.8
		c1.8,0,3.2,0.6,4.5,1.8c1.4,1.5,2.2,3.1,2.2,4.8c0,1.9-0.6,3.5-1.8,4.8L54.5,71.1z"/>
</svg>
