<svg id="Layer_1" data-name="Layer 1" xmlns="http://www.w3.org/2000/svg" viewBox="0 0 10.01 7.87"><title>mail</title><path d="M37.62,17.32c-.87.6-1.75,1.21-2.61,1.82-.36.25-1,.76-1.43.76h0c-.46,0-1.07-.51-1.43-.76l-2.61-1.82a2.17,2.17,0,0,1-1-1.41.9.9,0,0,1,.89-1h8.22a.9.9,0,0,1,.9.89,2,2,0,0,1-1,1.53m1,4.55a.9.9,0,0,1-.9.89H29.46a.89.89,0,0,1-.89-.89V17.43a2.9,2.9,0,0,0,.56.49c.93.63,1.87,1.26,2.78,1.93a3.11,3.11,0,0,0,1.66.77h0a3.14,3.14,0,0,0,1.66-.77c.91-.66,1.85-1.3,2.78-1.93a3.23,3.23,0,0,0,.56-.49Z" transform="translate(-28.57 -14.9)"/></svg>