<svg id="Layer_1" data-name="Layer 1" xmlns="http://www.w3.org/2000/svg" viewBox="0 0 7.87 7.87"><defs><style>.cls-1{fill:#00a6ca;}</style></defs><title>phone</title><path class="cls-1" d="M29,27.8a1.47,1.47,0,0,1-.68.6,2.1,2.1,0,0,1-1,.28,4.32,4.32,0,0,1-1.46-.38,5.88,5.88,0,0,1-1-.47,9.37,9.37,0,0,1-2.68-2.68,5.21,5.21,0,0,1-.47-1,4.32,4.32,0,0,1-.38-1.46,2.25,2.25,0,0,1,.28-1,1.47,1.47,0,0,1,.6-.68,2.53,2.53,0,0,1,.77-.17H23c.12,0,.24.32.3.43.18.32.35.64.53.95.09.15.26.33.26.5,0,.34-1,.84-1,1.14a1.16,1.16,0,0,0,.22.48,5.45,5.45,0,0,0,2.28,2.28,1.16,1.16,0,0,0,.48.22c.3,0,.8-1,1.14-1,.18,0,.35.17.5.26l1,.53c.12.06.39.18.43.3a.49.49,0,0,1,0,.12,2.27,2.27,0,0,1-.17.77" transform="translate(-21.27 -20.82)"/></svg>