<svg id="Layer_1" data-name="Layer 1" xmlns="http://www.w3.org/2000/svg" viewBox="0 0 14 14"><defs><style>.cls-1{fill:#00a6ca;}.cls-2{fill:#fff;}</style></defs><title>plus-in-circle</title><circle class="cls-1" cx="7" cy="7" r="7"/><path class="cls-2" d="M32.27,25.83a.71.71,0,0,1-.74.68H28.31v2.92a.72.72,0,0,1-.75.67H26.08a.71.71,0,0,1-.74-.67V26.51H22.11a.71.71,0,0,1-.74-.68V24.49a.72.72,0,0,1,.74-.68h3.23V20.9a.71.71,0,0,1,.74-.68h1.48a.72.72,0,0,1,.75.68v2.91h3.22a.71.71,0,0,1,.74.68Z" transform="translate(-19.82 -18.16)"/></svg>