<svg id="Layer_1" data-name="Layer 1" xmlns="http://www.w3.org/2000/svg" viewBox="0 0 9.3 8.58"><title>print</title><path d="M38.22,21.51a.18.18,0,0,1-.18.18H36.79v.89a.54.54,0,0,1-.54.54H30.89a.54.54,0,0,1-.54-.54v-.89H29.1a.19.19,0,0,1-.18-.18V19.19A1.09,1.09,0,0,1,30,18.11h.35v-3a.54.54,0,0,1,.54-.53h3.75a1.43,1.43,0,0,1,.92.38l.85.85a1.49,1.49,0,0,1,.38.91v1.43h.36a1.09,1.09,0,0,1,1.07,1.08Zm-2.15-2.68V16.68h-.89a.54.54,0,0,1-.54-.53v-.9H31.07v3.58Zm0,2.14h-5V22.4h5Zm1.08-2.14a.36.36,0,1,0,0,.71.36.36,0,0,0,0-.71" transform="translate(-28.92 -14.54)"/></svg>