<svg id="Layer_1" data-name="Layer 1" xmlns="http://www.w3.org/2000/svg" viewBox="0 0 14 14"><defs><style>.cls-1{fill:#00a6ca;}.cls-2{fill:#fff;}</style></defs><title>printer-in-circle</title><circle class="cls-1" cx="7" cy="7" r="7"/><path class="cls-2" d="M32.52,28.34a.22.22,0,0,1-.21.22h-1.5v1.06a.65.65,0,0,1-.64.65H23.75a.65.65,0,0,1-.64-.65V28.56h-1.5a.22.22,0,0,1-.21-.22V25.56a1.29,1.29,0,0,1,1.28-1.28h.43V20.64a.64.64,0,0,1,.64-.64h4.49a1.78,1.78,0,0,1,1.1.45l1,1a1.78,1.78,0,0,1,.45,1.1v1.71h.43a1.29,1.29,0,0,1,1.28,1.28ZM30,25.13V22.57H28.89a.65.65,0,0,1-.65-.65V20.86H24v4.27Zm0,2.57H24v1.71h6Zm1.28-2.57a.43.43,0,1,0,.43.43.44.44,0,0,0-.43-.43" transform="translate(-19.82 -18.26)"/></svg>