<?xml version="1.0" encoding="utf-8"?>
<!-- Generator: Adobe Illustrator 21.0.2, SVG Export Plug-In . SVG Version: 6.00 Build 0)  -->
<svg version="1.1" id="Layer_1" xmlns="http://www.w3.org/2000/svg" xmlns:xlink="http://www.w3.org/1999/xlink" x="0px" y="0px"
	 viewBox="0 0 258 193" style="enable-background:new 0 0 258 193;" xml:space="preserve">
<style type="text/css">
	.st0{fill:#A9A9A9;}
</style>
<title>Group</title>
<desc>Created with Sketch.</desc>
<g id="Marketing-Site">
	<g id="C-Criminal-Product-Page---Desktop" transform="translate(-181.000000, -1228.000000)">
		<g id="Group" transform="translate(181.000000, 1228.000000)">
			<path id="See-Example-Report" class="st0" d="M3.4,187.4c0,0.4,0.1,0.7,0.3,1c0.2,0.3,0.5,0.5,0.8,0.7s0.7,0.3,1.1,0.4
				s0.8,0.1,1.2,0.1c0.4,0,0.7,0,1.1-0.1c0.4,0,0.7-0.1,1-0.3c0.3-0.2,0.6-0.4,0.8-0.6c0.2-0.3,0.3-0.6,0.3-1.1
				c0-0.5-0.1-0.9-0.3-1.1c-0.2-0.3-0.5-0.5-0.9-0.6s-0.8-0.2-1.2-0.3c-0.4,0-0.8-0.1-1.2-0.1c-0.8-0.1-1.5-0.2-2.2-0.4
				c-0.7-0.2-1.4-0.4-2-0.8c-0.6-0.4-1-0.8-1.4-1.4s-0.5-1.3-0.5-2.2c0-0.9,0.2-1.7,0.5-2.4c0.4-0.7,0.8-1.2,1.4-1.6s1.3-0.7,2-0.9
				s1.6-0.3,2.4-0.3c0.8,0,1.6,0.1,2.3,0.3s1.5,0.5,2.1,0.9c0.6,0.4,1.1,0.9,1.5,1.6c0.4,0.6,0.6,1.4,0.6,2.4H9.7
				c0-0.3-0.2-0.6-0.4-0.9c-0.2-0.2-0.4-0.4-0.7-0.6c-0.3-0.2-0.6-0.3-0.9-0.3c-0.4-0.1-0.7-0.1-1.1-0.1c-0.4,0-0.7,0-1.1,0.1
				c-0.3,0.1-0.6,0.2-0.9,0.4s-0.5,0.4-0.6,0.6c-0.2,0.3-0.2,0.5-0.2,0.9c0,0.4,0.1,0.7,0.3,0.9c0.2,0.2,0.4,0.4,0.7,0.6
				s0.6,0.2,1,0.3c0.4,0.1,0.8,0.1,1.2,0.2c0.9,0.1,1.7,0.2,2.5,0.4s1.5,0.4,2.1,0.8c0.6,0.4,1.1,0.8,1.4,1.5
				c0.4,0.6,0.5,1.4,0.5,2.4c0,1-0.2,1.8-0.6,2.5c-0.4,0.7-0.9,1.2-1.5,1.6c-0.6,0.4-1.4,0.7-2.2,0.9c-0.8,0.2-1.6,0.3-2.4,0.3
				c-0.8,0-1.7-0.1-2.5-0.3c-0.8-0.2-1.5-0.5-2.2-1c-0.6-0.4-1.2-1-1.6-1.6S0,188.3,0,187.4H3.4z M26.8,178.7h-6.7v3.4h6.2v3.1h-6.2
				v3.8H27v3.3H16.5v-16.8h10.3V178.7z M40.5,178.7h-6.7v3.4h6.2v3.1h-6.2v3.8h6.9v3.3H30.2v-16.8h10.3V178.7z M60.1,178.7h-6.7v3.4
				h6.2v3.1h-6.2v3.8h6.9v3.3H49.8v-16.8h10.3V178.7z M69.7,181.4l1.6-3.2l1.7-2.6h3.9v0.5l-5.1,7.4l5.6,8.4v0.5h-3.8l-2.2-3.2
				l-1.8-3.1h-0.1l-1.8,3.2l-2.1,3.1h-3.8v-0.5l5.7-8.4l-5.1-7.4v-0.5h3.9l1.8,2.8L69.7,181.4L69.7,181.4z M82.6,189.6l-1.3,2.8
				h-3.7v-0.5l7.7-16.5H87l7.7,16.5v0.5h-3.7l-1.3-2.8H82.6z M83.8,186.6h4.7l-2.3-5.5L83.8,186.6z M111.3,175.6h1.3v16.8H109v-9.1
				l-4.2,5.3h-0.5l-4.2-5.3v9.1h-3.6v-16.8h1.3l6.7,8L111.3,175.6z M116.5,192.4v-16.8c1.2,0,2.4,0,3.6,0c1.2,0,2.4,0,3.6,0
				c1,0,1.8,0.2,2.6,0.5c0.7,0.3,1.4,0.8,1.9,1.4c0.5,0.6,0.9,1.2,1.1,2s0.4,1.5,0.4,2.3c0,0.8-0.1,1.5-0.4,2.2
				c-0.3,0.7-0.6,1.3-1.2,1.9c-0.5,0.5-1.1,1-1.9,1.3s-1.6,0.5-2.6,0.5h-3.6v4.8H116.5z M123.7,184.6c0.4,0,0.7-0.1,1-0.2
				c0.3-0.2,0.6-0.4,0.8-0.6c0.2-0.3,0.4-0.6,0.5-0.9c0.1-0.4,0.2-0.7,0.2-1.1c0-0.4-0.1-0.8-0.2-1.1c-0.1-0.4-0.3-0.7-0.5-0.9
				c-0.2-0.3-0.5-0.5-0.8-0.6c-0.3-0.2-0.7-0.2-1.1-0.2c-0.6,0-1.2,0-1.8,0c-0.6,0-1.2,0-1.8,0v5.8H123.7z M135.8,189.2h7v3.2h-10.6
				v-16.8h3.6V189.2z M155.4,178.7h-6.7v3.4h6.2v3.1h-6.2v3.8h6.9v3.3h-10.5v-16.8h10.3V178.7z M178.6,191.9v0.5h-3.8l-3.5-5.5h-3
				v5.5h-3.6v-16.8c1.2,0,2.4,0,3.6,0c1.2,0,2.4,0,3.6,0c1,0,1.8,0.2,2.5,0.5c0.7,0.3,1.4,0.7,1.9,1.3c0.5,0.5,0.9,1.2,1.1,1.8
				c0.3,0.7,0.4,1.4,0.4,2.1c0,1.1-0.3,2-0.8,2.9c-0.5,0.9-1.3,1.6-2.2,2L178.6,191.9z M171.9,183.9c0.8,0,1.4-0.3,1.8-0.8
				c0.5-0.5,0.7-1.1,0.7-1.8c0-0.7-0.2-1.3-0.7-1.8c-0.4-0.5-1-0.7-1.8-0.7h-3.6v5.2H171.9z M191.6,178.7h-6.7v3.4h6.2v3.1h-6.2v3.8
				h6.9v3.3h-10.5v-16.8h10.3V178.7z M195.1,192.4v-16.8c1.2,0,2.4,0,3.6,0c1.2,0,2.4,0,3.6,0c1,0,1.8,0.2,2.6,0.5
				c0.7,0.3,1.4,0.8,1.9,1.4c0.5,0.6,0.9,1.2,1.1,2c0.3,0.7,0.4,1.5,0.4,2.3c0,0.8-0.1,1.5-0.4,2.2c-0.3,0.7-0.6,1.3-1.2,1.9
				c-0.5,0.5-1.1,1-1.9,1.3s-1.6,0.5-2.6,0.5h-3.6v4.8H195.1z M202.2,184.6c0.4,0,0.7-0.1,1-0.2c0.3-0.2,0.6-0.4,0.8-0.6
				c0.2-0.3,0.4-0.6,0.5-0.9c0.1-0.4,0.2-0.7,0.2-1.1c0-0.4-0.1-0.8-0.2-1.1c-0.1-0.4-0.3-0.7-0.5-0.9c-0.2-0.3-0.5-0.5-0.8-0.6
				c-0.3-0.2-0.7-0.2-1.1-0.2c-0.6,0-1.2,0-1.8,0c-0.6,0-1.2,0-1.8,0v5.8H202.2z M227,184c0,1.3-0.2,2.4-0.6,3.5
				c-0.4,1.1-1,2-1.8,2.7c-0.8,0.8-1.7,1.4-2.7,1.8c-1.1,0.4-2.2,0.6-3.5,0.6c-1.1,0-2.2-0.2-3.2-0.6c-1-0.4-1.9-0.9-2.7-1.6
				c-0.8-0.7-1.4-1.6-1.9-2.7s-0.7-2.3-0.7-3.7c0-1.4,0.2-2.7,0.7-3.7c0.5-1.1,1.1-2,1.9-2.7c0.8-0.7,1.7-1.3,2.7-1.6
				c1-0.4,2.1-0.6,3.2-0.6c1.1,0,2.2,0.2,3.2,0.6c1,0.4,1.9,0.9,2.7,1.6c0.8,0.7,1.4,1.6,1.9,2.7C226.7,181.3,227,182.6,227,184z
				 M213.4,184c0,0.9,0.1,1.7,0.4,2.4c0.3,0.7,0.6,1.2,1.1,1.7s1,0.8,1.6,1s1.2,0.3,1.9,0.3c0.7,0,1.3-0.1,1.9-0.3
				c0.6-0.2,1.1-0.5,1.6-1s0.8-1,1.1-1.7c0.3-0.7,0.4-1.5,0.4-2.4c0-0.9-0.1-1.7-0.4-2.3s-0.6-1.2-1.1-1.7c-0.5-0.4-1-0.8-1.6-1
				c-0.6-0.2-1.2-0.3-1.9-0.3c-0.7,0-1.3,0.1-1.9,0.3c-0.6,0.2-1.1,0.6-1.6,1c-0.5,0.4-0.8,1-1.1,1.7
				C213.6,182.3,213.4,183.1,213.4,184z M243.8,191.9v0.5H240l-3.5-5.5h-3v5.5H230v-16.8c1.2,0,2.4,0,3.6,0c1.2,0,2.4,0,3.6,0
				c1,0,1.8,0.2,2.5,0.5s1.4,0.7,1.9,1.3c0.5,0.5,0.9,1.2,1.1,1.8s0.4,1.4,0.4,2.1c0,1.1-0.3,2-0.8,2.9s-1.3,1.6-2.2,2L243.8,191.9z
				 M237.1,183.9c0.8,0,1.4-0.3,1.8-0.8c0.5-0.5,0.7-1.1,0.7-1.8c0-0.7-0.2-1.3-0.7-1.8c-0.4-0.5-1-0.7-1.8-0.7h-3.6v5.2H237.1z
				 M245,178.7v-3.1h12.4v3.1H253v13.7h-3.5v-13.7H245z"/>
			<path id="B" class="st0" d="M150.1,67.6v15.8H93.9V67.6H150.1z M93.9,113.7V98.6h56.2v15.2H93.9z M161.9,0.4
				c5.3,0,9.7,1.8,13.2,5.3c3.8,3.8,5.6,8.2,5.6,13.2v106.9c0,10.1-5.2,16.3-15.5,18.6V19c0-2.3-1.1-3.4-3.4-3.4h-43.9v17.7
				c0,5.3-1.9,9.7-5.6,13.2c-3.8,3.9-8.2,5.9-13.2,5.9H78.7v73.4c0,2.3,1.1,3.4,3.4,3.4h68.1v15.2H82.1c-5.3,0-9.7-1.8-13.2-5.3
				c-3.8-3.8-5.6-8.2-5.6-13.2V36.7c0-2.4,0.7-4.3,2-5.6L93.9,2.4c2.4-1.3,4.3-2,5.6-2H161.9z M102.3,33.3V15.6L81.5,37.2h17.7
				C101.3,37.2,102.3,35.9,102.3,33.3z"/>
		</g>
	</g>
</g>
</svg>
