<svg id="Layer_1" data-name="Layer 1" xmlns="http://www.w3.org/2000/svg" viewBox="0 0 73.46 74.12"><defs><style>.cls-1{fill:#006685;}</style></defs><title>tu-stamp-dark-blue</title><path class="cls-1" d="M36.34,74.12A37.06,37.06,0,1,0,4.24,18.58C1.8,23,1.58,26.85,3.39,30c2.11,3.7,6.88,4.26,9.54,4.26h4.74L16,39.63A10.23,10.23,0,0,0,17,48.7a8.9,8.9,0,0,0,7.46,3.53,15.8,15.8,0,0,0,6.6-1.35,12.11,12.11,0,0,1-1.39-2.64A12.76,12.76,0,0,1,29,45.53a12.06,12.06,0,0,1-4.29.73A3.44,3.44,0,0,1,22,45a4.19,4.19,0,0,1-.34-3.57L24,34.23h7.28l1.92-6H26l3.21-9.84H22.8l-3.19,9.84H13c-2.12,0-3.45-.54-4.08-1.64s-.08-3.78,1.68-6.78l.07-.12A31,31,0,1,1,5.89,42.86L0,44.06A37.07,37.07,0,0,0,36.39,74.11" transform="translate(0.04 0)"/><path class="cls-1" d="M60,47.07a8.32,8.32,0,0,1-4.56-1,3,3,0,0,1-1.24-1.87v-.09a3.56,3.56,0,0,1,.19-1.71l4.58-14.12H52.52L48.61,40.49h0c-1.1,3.16-4.39,5.72-7.35,5.72a2.91,2.91,0,0,1-2.29-1,3,3,0,0,1-.3-2.8L43.25,28.3H36.88L33,40.5a9.38,9.38,0,0,0,1,8.43A8.44,8.44,0,0,0,41,52.28a14,14,0,0,0,8.69-3.35,6.47,6.47,0,0,0,3.42,2.67,13.32,13.32,0,0,0,4.81.68A7.33,7.33,0,0,0,59.68,52c.13-.2.26-.39.38-.59.23-.38.45-.77.67-1.17s.41-.79.61-1.19.37-.82.55-1.23.24-.59.35-.88A21.77,21.77,0,0,1,60,47.07Z" transform="translate(0.04 0)"/></svg>