<svg id="Layer_1" data-name="Layer 1" xmlns="http://www.w3.org/2000/svg" viewBox="0 0 73.42 74.12"><defs><style>.cls-1{fill:#fcd800;}</style></defs><title>tu-stamp-yellow</title><path class="cls-1" d="M36.38,74.11A37.06,37.06,0,1,0,4.28,18.57C1.84,23,1.62,26.84,3.43,30c2.11,3.7,6.88,4.26,9.54,4.26h4.74L16,39.62a10.23,10.23,0,0,0,1.07,9.07,8.9,8.9,0,0,0,7.46,3.53,15.8,15.8,0,0,0,6.6-1.35,12.11,12.11,0,0,1-1.39-2.64,12.62,12.62,0,0,1-.66-2.71,12.06,12.06,0,0,1-4.29.73A3.43,3.43,0,0,1,22.07,45a4.19,4.19,0,0,1-.34-3.57l2.34-7.21h7.28l1.92-6H26l3.21-9.84H22.84l-3.19,9.84H13c-2.12,0-3.45-.54-4.08-1.64s-.08-3.78,1.68-6.78l.07-.12A31,31,0,1,1,5.93,42.85L0,44.05A37.07,37.07,0,0,0,36.43,74.1" transform="translate(-0.04 0.01)"/><path class="cls-1" d="M60,47.06a8.32,8.32,0,0,1-4.56-1,3,3,0,0,1-1.24-1.87V44.1a3.56,3.56,0,0,1,.19-1.71l4.58-14.12H52.56L48.65,40.48h0c-1.1,3.16-4.39,5.72-7.35,5.72a2.91,2.91,0,0,1-2.29-1,3,3,0,0,1-.3-2.8l4.58-14.11H36.92L33,40.49a9.38,9.38,0,0,0,1,8.43,8.44,8.44,0,0,0,7.06,3.35,14,14,0,0,0,8.69-3.35,6.47,6.47,0,0,0,3.42,2.67,13.32,13.32,0,0,0,4.81.68A7.14,7.14,0,0,0,59.72,52c.13-.2.26-.39.38-.59.23-.38.45-.77.67-1.17s.41-.79.61-1.19.37-.82.55-1.23.24-.59.35-.88A22.49,22.49,0,0,1,60,47.06Z" transform="translate(-0.04 0.01)"/></svg>