<?xml version="1.0" encoding="utf-8"?>
<!-- Generator: Adobe Illustrator 21.1.0, SVG Export Plug-In . SVG Version: 6.00 Build 0)  -->
<svg version="1.1" xmlns="http://www.w3.org/2000/svg" xmlns:xlink="http://www.w3.org/1999/xlink" x="0px" y="0px"
	 viewBox="0 0 356.1 49.9" style="enable-background:new 0 0 356.1 49.9;" xml:space="preserve">
<style type="text/css">
	.st0{fill:#FFFFFF;}
</style>
<g id="TU_Logo">
	<rect x="137.1" y="13.4" class="st0" width="0.2" height="31.4"/>
	<g>
		<path class="st0" d="M24.2,26.8c-0.3-0.2-0.7-0.4-1.1-0.5c-0.4-0.1-0.8-0.2-1.2-0.2c-0.3,0-0.6,0-0.9,0.1
			c-0.3,0.1-0.6,0.2-0.9,0.3c-0.3,0.1-0.5,0.3-0.7,0.5c-0.2,0.2-0.4,0.5-0.5,0.7c0-0.4-0.1-0.7-0.3-1c-0.2-0.2-0.5-0.4-0.8-0.5
			c-0.3-0.1-0.6-0.2-1-0.2c-0.4,0-0.8,0-1.1,0.1l0,1.6c0.3,0,0.5,0,0.6,0.1c0.2,0.1,0.3,0.1,0.3,0.2c0.1,0.1,0.1,0.3,0.1,0.4
			c0,0.2,0,0.4,0,0.6v7.4h2.3v-5.9c0-0.4,0.1-0.8,0.2-1.1c0.1-0.3,0.3-0.6,0.6-0.8c0.2-0.2,0.5-0.3,0.8-0.4c0.3-0.1,0.6-0.1,1-0.1
			c0.6,0,1.1,0.1,1.6,0.4l0,0L24.2,26.8z"/>
		<path class="st0" d="M34.3,34.9c-0.1-0.1-0.3-0.1-0.3-0.3c-0.1-0.1-0.1-0.3-0.1-0.5c0-0.2,0-0.4,0-0.6V27
			c-0.7-0.3-1.4-0.5-2.1-0.7c-0.7-0.2-1.4-0.2-2.1-0.2c-0.8,0-1.6,0.1-2.3,0.3c-0.7,0.2-1.3,0.6-1.8,1.1c-0.5,0.5-0.9,1.1-1.2,1.7
			c-0.3,0.7-0.5,1.4-0.5,2.3c0,0.7,0.1,1.4,0.3,2c0.2,0.6,0.5,1.2,0.9,1.6c0.4,0.5,0.9,0.8,1.4,1.1s1.3,0.4,2,0.4
			c0.7,0,1.5-0.2,2.1-0.6c0.7-0.4,1.1-0.9,1.4-1.6c0,0.5,0.1,1,0.3,1.3c0.2,0.3,0.4,0.5,0.7,0.7c0.3,0.1,0.6,0.2,1,0.2
			c0.4,0,0.7,0,1.1-0.1v-1.6C34.6,35,34.4,34.9,34.3,34.9z M31.6,31.4c0,0.9-0.3,1.7-0.7,2.3c-0.4,0.6-1.1,0.9-2,0.9
			c-0.9,0-1.6-0.3-2.1-0.8c-0.5-0.6-0.7-1.3-0.7-2.2c0-0.6,0.1-1,0.3-1.5c0.2-0.4,0.4-0.8,0.7-1.1c0.3-0.3,0.6-0.6,1-0.7
			C28.5,28,29,28,29.5,28c0.3,0,0.7,0,1,0.1c0.4,0.1,0.7,0.2,1.1,0.3V31.4z"/>
		<path class="st0" d="M45.3,27.4C45,27,44.5,26.7,44,26.5c-0.5-0.2-1.1-0.3-1.8-0.3c-0.3,0-0.7,0-1,0.1c-0.3,0.1-0.7,0.2-1,0.3
			c-0.3,0.1-0.6,0.3-0.9,0.5c-0.3,0.2-0.5,0.5-0.6,0.8c0-0.5-0.1-0.8-0.3-1.1c-0.2-0.3-0.4-0.4-0.8-0.5c-0.3-0.1-0.6-0.1-1-0.1
			c-0.4,0-0.8,0.1-1.1,0.1v1.6c0.3,0,0.5,0,0.6,0c0.1,0,0.3,0.1,0.3,0.2c0.1,0.1,0.1,0.3,0.1,0.4c0,0.2,0,0.4,0,0.7v7.2H39v-5.8
			c0-0.4,0.1-0.8,0.2-1.1c0.1-0.3,0.3-0.6,0.5-0.9c0.2-0.2,0.5-0.4,0.8-0.6c0.3-0.1,0.6-0.2,1-0.2c0.7,0,1.3,0.2,1.7,0.7
			c0.5,0.4,0.7,1.1,0.7,1.9v6h2.3v-6c0-0.6-0.1-1.2-0.2-1.8C45.9,28.2,45.6,27.8,45.3,27.4z"/>
		<path class="st0" d="M55.6,31.2c-0.4-0.2-0.8-0.4-1.3-0.5c-0.5-0.1-1-0.2-1.6-0.3c-0.8-0.1-1.4-0.2-1.8-0.4
			c-0.4-0.1-0.6-0.4-0.6-0.9c0-0.2,0-0.4,0.1-0.6c0.1-0.2,0.3-0.3,0.5-0.4c0.2-0.1,0.4-0.2,0.7-0.3c0.3-0.1,0.5-0.1,0.8-0.1
			c0.3,0,0.5,0,0.8,0.1c0.3,0,0.5,0.1,0.7,0.2c0.2,0.1,0.4,0.2,0.5,0.4c0.1,0.2,0.2,0.4,0.2,0.6h2c0-0.5-0.1-1-0.3-1.3
			c-0.2-0.4-0.5-0.7-0.9-1c-0.4-0.3-0.9-0.5-1.4-0.6c-0.5-0.1-1.1-0.2-1.7-0.2c-0.5,0-1.1,0.1-1.6,0.2c-0.5,0.1-1,0.3-1.4,0.6
			c-0.4,0.3-0.7,0.6-1,1c-0.2,0.4-0.4,0.9-0.4,1.4c0,0.6,0.2,1,0.4,1.4c0.3,0.3,0.6,0.6,1.1,0.8c0.4,0.2,0.9,0.3,1.4,0.4
			c0.5,0.1,1.1,0.2,1.6,0.2c0.7,0.1,1.2,0.2,1.7,0.4c0.4,0.2,0.6,0.5,0.6,1c0,0.3-0.1,0.6-0.2,0.8c-0.1,0.2-0.3,0.4-0.6,0.5
			c-0.2,0.1-0.5,0.2-0.8,0.2C52.9,35,52.6,35,52.4,35c-0.3,0-0.6,0-0.8-0.1c-0.3-0.1-0.5-0.2-0.7-0.3c-0.2-0.1-0.4-0.3-0.5-0.5
			C50.1,34,50,33.8,50,33.5h-2.3c0,0.6,0.2,1.2,0.5,1.6c0.3,0.4,0.6,0.8,1.1,1c0.4,0.3,0.9,0.4,1.5,0.5c0.5,0.1,1.1,0.1,1.7,0.1
			c0.6,0,1.1-0.1,1.7-0.2c0.5-0.1,1-0.3,1.4-0.6c0.4-0.3,0.7-0.6,1-1c0.3-0.4,0.4-0.9,0.4-1.5c0-0.6-0.1-1.1-0.4-1.5
			C56.3,31.7,56,31.4,55.6,31.2z"/>
		<path class="st0" d="M81.4,27.4c-0.3-0.4-0.8-0.7-1.3-0.9c-0.5-0.2-1.1-0.3-1.8-0.3c-0.3,0-0.7,0-1,0.1c-0.3,0.1-0.7,0.2-1,0.3
			c-0.3,0.1-0.6,0.3-0.9,0.5c-0.3,0.2-0.5,0.5-0.6,0.8c0-0.5-0.1-0.8-0.3-1.1c-0.2-0.3-0.4-0.4-0.8-0.5c-0.3-0.1-0.6-0.1-1-0.1
			c-0.4,0-0.8,0.1-1.1,0.1v1.6c0.3,0,0.5,0,0.6,0c0.1,0,0.3,0.1,0.3,0.2c0.1,0.1,0.1,0.3,0.1,0.4c0,0.2,0,0.4,0,0.7v7.2h2.3v-5.8
			c0-0.4,0.1-0.8,0.2-1.1c0.1-0.3,0.3-0.6,0.5-0.9c0.2-0.2,0.5-0.4,0.8-0.6c0.3-0.1,0.7-0.2,1-0.2c0.7,0,1.3,0.2,1.7,0.7
			c0.5,0.4,0.7,1.1,0.7,1.9v6h2.3v-6c0-0.6-0.1-1.2-0.2-1.8C82,28.2,81.7,27.8,81.4,27.4z"/>
		<path class="st0" d="M85.5,21.8c-0.4,0-0.7,0.1-1,0.3c-0.3,0.2-0.4,0.6-0.4,1c0,0.5,0.1,0.8,0.4,1c0.3,0.2,0.6,0.3,1,0.3
			c0.3,0,0.6-0.1,0.9-0.4c0.3-0.2,0.4-0.6,0.4-1c0-0.5-0.1-0.8-0.4-1C86.2,21.9,85.8,21.8,85.5,21.8z"/>
		<rect x="84.3" y="26.3" class="st0" width="2.3" height="10.2"/>
		<path class="st0" d="M97.4,27.4c-0.5-0.4-1.1-0.8-1.8-1c-0.7-0.2-1.3-0.3-2.1-0.3c-0.7,0-1.3,0.1-1.9,0.3c-0.6,0.2-1.2,0.5-1.7,1
			c-0.5,0.4-0.9,1-1.2,1.6c-0.3,0.7-0.5,1.4-0.5,2.3c0,0.9,0.2,1.7,0.5,2.3c0.3,0.7,0.7,1.2,1.2,1.7c0.5,0.4,1.1,0.8,1.7,1
			c0.6,0.2,1.3,0.3,2,0.3c0.7,0,1.3-0.1,2-0.3c0.6-0.2,1.2-0.6,1.7-1c0.5-0.4,0.9-1,1.2-1.7c0.3-0.7,0.5-1.5,0.5-2.3
			c0-0.9-0.2-1.7-0.5-2.3C98.3,28.4,97.9,27.8,97.4,27.4z M96.5,32.8c-0.2,0.4-0.4,0.8-0.7,1c-0.3,0.3-0.6,0.5-1,0.6
			c-0.4,0.1-0.7,0.2-1.1,0.2c-0.4,0-0.8-0.1-1.2-0.2c-0.4-0.1-0.7-0.3-1-0.6s-0.5-0.6-0.7-1c-0.2-0.4-0.3-0.9-0.3-1.4
			c0-0.5,0.1-1,0.3-1.4c0.2-0.4,0.4-0.7,0.7-1c0.3-0.3,0.6-0.5,1-0.6c0.4-0.1,0.7-0.2,1.1-0.2c0.4,0,0.8,0,1.2,0.2
			c0.4,0.1,0.7,0.3,1,0.6c0.3,0.3,0.5,0.6,0.7,1c0.2,0.4,0.3,0.9,0.3,1.4S96.7,32.4,96.5,32.8z"/>
		<path class="st0" d="M5.6,23.9v-2.2h11v2.2h-4.3v12.6H9.9V23.9H5.6z"/>
		<path class="st0" d="M58.6,31.5v-9.8h2.5v9.8c0,1.9,1.5,3,3.3,3c1.9,0,3.3-1.1,3.3-3v-9.8h2.4v9.8c0,3.3-2.6,5.2-5.7,5.2
			C61.2,36.7,58.6,34.8,58.6,31.5z"/>
		<path class="st0" d="M110.5,34.1v-1.6l0,0v-2c0-0.6-0.1-1.2-0.2-1.8c-0.2-0.5-0.4-1-0.7-1.4c-0.3-0.4-0.8-0.7-1.3-0.9
			c-0.5-0.2-1.1-0.3-1.8-0.3c-0.3,0-0.7,0-1,0.1c-0.3,0.1-0.7,0.2-1,0.3c-0.3,0.1-0.6,0.3-0.9,0.5c-0.3,0.2-0.5,0.5-0.6,0.8
			c0-0.5-0.1-0.8-0.3-1.1c-0.2-0.3-0.4-0.4-0.8-0.5c-0.3-0.1-0.6-0.1-1-0.1c-0.4,0-0.8,0.1-1.1,0.1v1.6c0.3,0,0.5,0,0.6,0
			c0.1,0,0.3,0.1,0.3,0.2c0.1,0.1,0.1,0.3,0.1,0.4c0,0.2,0,0.4,0,0.7v7.2h2.3v-5.8c0-0.4,0.1-0.8,0.2-1.1c0.1-0.3,0.3-0.6,0.6-0.9
			c0.2-0.2,0.5-0.4,0.8-0.6c0.3-0.1,0.6-0.2,1-0.2c0.7,0,1.3,0.2,1.7,0.7c0.5,0.4,0.7,1.1,0.7,1.9V34l0,0v0.2c0,2.5,1.6,2.7,3.5,2.4
			v-1.5C110.7,35.2,110.5,34.9,110.5,34.1z"/>
		<g>
			<g>
				<path class="st0" d="M116.5,5.1c-4,0-7.4,2.2-9.3,5.4c-0.7,1.3-0.8,2.4-0.2,3.3c0.6,1.1,2,1.2,2.8,1.2h1.4l-0.5,1.5
					c-0.3,0.9-0.2,1.9,0.3,2.6c0.5,0.7,1.2,1,2.2,1c0.6,0,1.3-0.1,1.9-0.4c-0.2-0.2-0.3-0.5-0.4-0.8c-0.1-0.2-0.2-0.5-0.2-0.8
					c-0.4,0.1-0.8,0.2-1.2,0.2c-0.2,0-0.6-0.1-0.8-0.4c-0.2-0.2-0.2-0.6-0.1-1l0.7-2.1h2.1l0.6-1.7h-2.1l0.9-2.8h-1.8l-0.9,2.8h-1.9
					c-0.6,0-1-0.2-1.2-0.5c-0.2-0.4,0-1.1,0.5-2l0,0c1.6-2.4,4.3-4,7.4-4c4.9,0,9,4,9,9c0,4.9-4,9-9,9c-4.4,0-8-3.1-8.8-7.3
					l-1.7,0.3c0.9,4.9,5.3,8.7,10.5,8.7c5.9,0,10.7-4.8,10.7-10.7S122.4,5.1,116.5,5.1z"/>
			</g>
			<g>
				<path class="st0" d="M123.3,18.7c-0.4,0-1-0.1-1.3-0.3c-0.1-0.1-0.3-0.3-0.4-0.5c0,0,0,0,0,0c0-0.1,0-0.3,0.1-0.5l1.3-4.1h0
					h-1.8h0l-1.1,3.5c0,0,0,0,0,0c-0.3,0.9-1.3,1.7-2.1,1.7c-0.2,0-0.5-0.1-0.7-0.3c-0.1-0.2-0.2-0.4-0.1-0.8l1.3-4.1h-1.8l-1.1,3.5
					c-0.3,0.9-0.2,1.8,0.3,2.4c0.5,0.6,1.2,1,2,1c0.9,0,1.8-0.4,2.5-1c0.3,0.4,0.6,0.6,1,0.8c0.6,0.2,1,0.2,1.4,0.2
					c0.2,0,0.4,0,0.5-0.1c0-0.1,0.1-0.1,0.1-0.2c0.1-0.1,0.1-0.2,0.2-0.3c0.1-0.1,0.1-0.2,0.2-0.3c0.1-0.1,0.1-0.2,0.2-0.4
					c0-0.1,0.1-0.2,0.1-0.3C123.9,18.6,123.6,18.7,123.3,18.7z"/>
			</g>
		</g>
		<path class="st0" d="M112.9,35.3c0-1.8,2.7-1.8,2.7,0C115.6,37.2,112.9,37.2,112.9,35.3z M115.3,35.3c0-1.6-2.3-1.6-2.3,0
			C113.1,36.9,115.3,36.9,115.3,35.3z M114.8,35.9L114.8,35.9l-0.2,0l-0.3-0.5H114V36h-0.2v-1.3h0.5c0.3,0,0.5,0.2,0.5,0.4
			c0,0.2-0.1,0.4-0.3,0.4L114.8,35.9z M114,35.3h0.3c0.2,0,0.3-0.1,0.3-0.3c0-0.1-0.1-0.3-0.3-0.3H114V35.3z"/>
	</g>
</g>
<g id="Input_Solution_x2F_Product_Name_Here">
	<g>
		<path class="st0" d="M149.5,32.4c0.1,2,2.4,2.7,4.3,2.7c1.8,0,4-0.6,4.1-2.8c0-2.4-2.3-2.5-4.3-2.8c-2.7-0.3-5.5-1-5.5-4
			c0-3,2.8-4.3,5.5-4.3c2.6,0,5.5,1.1,5.7,4.1h-1.7c-0.2-1.9-2.2-2.5-3.9-2.5c-1.7,0-3.7,0.7-3.7,2.7c0,2.2,2.2,2.3,4,2.6
			c3,0.3,5.8,0.9,5.8,4.2c0,3.2-3.1,4.3-5.9,4.4c-2.8,0.1-6-1.2-6.1-4.3H149.5z"/>
		<path class="st0" d="M169.6,36.5v-6.1c0-2-1.1-3.1-2.9-3.1c-1.9,0-3.1,1.3-3.1,3.2v6h-1.7V20.7h1.7v6.8c0.9-1.1,1.9-1.6,3.6-1.6
			c2.8,0,4.2,1.8,4.2,4.5v6.1H169.6z"/>
		<path class="st0" d="M176.8,36.7c-1.9,0-3.7-0.9-3.7-3c0-2.3,1.8-3.5,4-3.5c1.2,0,2.5,0.2,3.6,0.8v-1.5c0-1.7-1.9-2.2-3.3-2.2
			c-1.2,0-2.3,0.2-3.2,0.8l-0.3-1.3c1-0.5,2.3-0.8,3.7-0.8c2.4,0,4.6,0.9,4.6,3.6v4.3c0,1.1-0.1,1.8,1.2,1.6l0,1.1
			c-1.7,0.3-2.5,0-2.5-1.9C180.1,36.1,178.4,36.7,176.8,36.7z M180.7,32.3c-0.6-0.4-2-0.7-3.2-0.7c-1.3,0-2.7,0.5-2.7,2
			c0,1.3,1.1,1.7,2.3,1.7c1.4,0,3.1-0.6,3.6-2.3V32.3z"/>
		<path class="st0" d="M190,25.9c0.9,0,1.7,0.3,2.4,0.8l-0.4,1.4c-0.7-0.4-1.4-0.7-2.2-0.7c-1.5,0-2.9,1.1-2.9,2.7v6.4h-1.7v-7.9
			c0-1,0-1.5-1.3-1.4l0-1.1c1.6-0.3,2.8-0.1,2.8,1.5C187.5,26.4,188.7,25.9,190,25.9z"/>
		<path class="st0" d="M202.9,31.5h-8.2c-0.1,2.4,1.8,3.8,4.1,3.8c1.2,0,2.3-0.3,3.5-0.8l0.3,1.3c-1.2,0.6-2.5,0.9-3.8,0.9
			c-3.5,0-5.9-2.1-5.8-5.7c0.1-3.3,2.5-5.1,5.3-5.1C201.8,25.9,203.4,28,202.9,31.5z M194.7,30.2h6.8c0.1-2-1.3-2.9-3.2-2.9
			C196.4,27.2,195,28.3,194.7,30.2z"/>
		<path class="st0" d="M207.5,32.8l-1.8,3.7h-1.9v-0.2l7-14.9h0.8l7,14.9v0.2h-1.9l-1.8-3.7H207.5z M208.1,31.2h6.3l-3.2-7.1
			L208.1,31.2z"/>
		<path class="st0" d="M220,20.7h1.7v6c1.1-0.6,2.2-0.9,3.3-0.9c2.7,0,5,2,5,5.5c0,3.9-2.7,5.3-5.7,5.3c-1.4,0-2.9-0.3-4.3-0.9V20.7
			z M221.7,34.7c0.9,0.3,1.8,0.5,2.7,0.5c2.1,0,3.9-1.1,3.9-3.9c0-2.7-1.6-4-3.5-4c-1,0-2.1,0.3-3.1,1V34.7z"/>
		<path class="st0" d="M233.7,20.7v12.1c0,2,0.3,2.6,1.7,2.6c0.3,0,0.6,0,0.9-0.1l0.1,1.2c-0.5,0.1-0.8,0.1-1.3,0.1
			c-2.2,0-3.1-1.2-3.1-3.9V20.7H233.7z"/>
		<path class="st0" d="M246.5,31.5h-8.2c-0.1,2.4,1.8,3.8,4.1,3.8c1.2,0,2.3-0.3,3.5-0.8l0.3,1.3c-1.2,0.6-2.5,0.9-3.8,0.9
			c-3.5,0-5.9-2.1-5.8-5.7c0.1-3.3,2.5-5.1,5.3-5.1C245.5,25.9,247.1,28,246.5,31.5z M238.3,30.2h6.8c0.1-2-1.3-2.9-3.2-2.9
			C240,27.2,238.6,28.3,238.3,30.2z"/>
		<path class="st0" d="M275.5,31.8h-4.9v4.7h-1.3V25.3h6.7v1.2h-5.3v4.1h4.9V31.8z"/>
		<path class="st0" d="M282.5,36.7c-3.2,0-5.7-2.2-5.7-5.7c0-3.6,2.5-5.7,5.7-5.7c3.1,0,5.7,2.2,5.7,5.7
			C288.2,34.3,285.9,36.7,282.5,36.7z M282.5,35.4c2.5,0,4.4-1.8,4.4-4.5c0-2.7-1.9-4.5-4.3-4.5c-2.4,0-4.3,1.8-4.3,4.5
			C278.2,33.6,280.1,35.4,282.5,35.4z"/>
		<path class="st0" d="M298.6,36.3v0.2h-1.4l-3.1-4.1h-2.9v4.1h-1.3V25.3h4.5c2.3,0,3.8,1.6,3.8,3.6c0,1.7-1.1,2.9-2.7,3.3
			L298.6,36.3z M294.3,31.3c1.4,0,2.5-1,2.5-2.4c0-1.4-1.1-2.4-2.5-2.4h-3.1v4.8H294.3z"/>
		<path class="st0" d="M311.3,36.5v-5.2h-5.9v5.2h-1.3V25.3h1.3V30h5.9v-4.7h1.3v11.2H311.3z"/>
		<path class="st0" d="M319.4,35.4v1.1h-5.2v-1.1h1.9v-9.1h-1.8v-1.1h5v1.1h-1.8v9.1H319.4z"/>
		<path class="st0" d="M329.6,36.3v0.2h-1.4l-3.1-4.1h-2.9v4.1h-1.3V25.3h4.5c2.3,0,3.8,1.6,3.8,3.6c0,1.7-1.1,2.9-2.7,3.3
			L329.6,36.3z M325.3,31.3c1.4,0,2.5-1,2.5-2.4c0-1.4-1.1-2.4-2.5-2.4h-3.1v4.8H325.3z"/>
		<path class="st0" d="M337.7,26.5h-5.2v3.7h5v1.2h-5v4h5.3v1.2h-6.7V25.3h6.5V26.5z"/>
		<path class="st0" d="M340.2,33.4c0.1,1.5,1.8,2.1,3.2,2.1c1.3,0,3-0.5,3-2.1c0-1.8-1.7-1.8-3.2-2c-2-0.2-4.1-0.7-4.1-2.9
			c0-2.2,2.1-3.2,4.1-3.2c1.9,0,4.1,0.9,4.2,3.1h-1.2c-0.1-1.4-1.6-1.9-2.9-1.9c-1.2,0-2.8,0.5-2.8,2c0,1.7,1.6,1.7,3,1.9
			c2.2,0.3,4.3,0.6,4.3,3.1c0,2.4-2.3,3.3-4.3,3.3c-2.1,0-4.4-0.9-4.5-3.2H340.2z"/>
	</g>
	<g>
		<path class="st0" d="M248.3,35.9c0,0.2,0.3,0.3,0.5,0.3c0.2,0,0.5-0.1,0.5-0.3c0-0.3-0.3-0.3-0.5-0.3c-0.4,0-0.7-0.2-0.7-0.6
			c0-0.4,0.4-0.6,0.8-0.6c0.4,0,0.8,0.2,0.8,0.6h-0.3c0-0.2-0.2-0.3-0.4-0.3c-0.2,0-0.4,0.1-0.4,0.3s0.2,0.3,0.5,0.3
			c0.4,0,0.8,0.1,0.8,0.6c0,0.4-0.4,0.6-0.8,0.6c-0.4,0-0.8-0.2-0.8-0.6H248.3z"/>
		<path class="st0" d="M251.8,34.4h0.1v2h-0.3v-1.3L251,36h0l-0.6-0.8v1.3H250v-2h0.1l0.8,1.1L251.8,34.4z"/>
	</g>
</g>
</svg>
