<svg id="Layer_1" data-name="Layer 1" xmlns="http://www.w3.org/2000/svg" viewBox="0 0 14 14"><defs><style>.cls-1{fill:#00a6ca;}.cls-2{fill:#fff;}</style></defs><title>twitter-in-circle</title><circle class="cls-1" cx="7" cy="7" r="7"/><path class="cls-2" d="M31.91,24.15v.29a6.2,6.2,0,0,1-9.55,5.22,4.71,4.71,0,0,0,.53,0,4.37,4.37,0,0,0,2.71-.94,2.18,2.18,0,0,1-2-1.51,2.85,2.85,0,0,0,.41,0,2.12,2.12,0,0,0,.57-.08,2.18,2.18,0,0,1-1.74-2.14v0a2.14,2.14,0,0,0,1,.27,2.19,2.19,0,0,1-1-1.81,2.13,2.13,0,0,1,.3-1.1,6.21,6.21,0,0,0,4.49,2.28,2.73,2.73,0,0,1-.05-.5A2.18,2.18,0,0,1,29.73,22a2.15,2.15,0,0,1,1.59.69,4.35,4.35,0,0,0,1.38-.53,2.12,2.12,0,0,1-1,1.2A4.42,4.42,0,0,0,33,23a4.83,4.83,0,0,1-1.09,1.12" transform="translate(-19.82 -18.26)"/></svg>