<svg id="Layer_1" data-name="Layer 1" xmlns="http://www.w3.org/2000/svg" viewBox="0 0 8.81 7.15"><defs><style>.cls-1{fill:#00a6ca;}</style></defs><title>twitter</title><path class="cls-1" d="M26.54,22.79a1.77,1.77,0,0,1,0,.23,5.14,5.14,0,0,1-7.91,4.33l.44,0a3.66,3.66,0,0,0,2.24-.77,1.83,1.83,0,0,1-1.69-1.25l.34,0a2,2,0,0,0,.48-.06A1.8,1.8,0,0,1,19,23.54v0a1.86,1.86,0,0,0,.82.23A1.81,1.81,0,0,1,19,22.24a1.78,1.78,0,0,1,.25-.91A5.12,5.12,0,0,0,23,23.22a1.84,1.84,0,0,1-.05-.41A1.82,1.82,0,0,1,24.74,21a1.78,1.78,0,0,1,1.32.58,3.51,3.51,0,0,0,1.14-.44,1.77,1.77,0,0,1-.79,1,3.72,3.72,0,0,0,1-.28,4.06,4.06,0,0,1-.91.94" transform="translate(-18.64 -21)"/></svg>