<svg id="Layer_1" data-name="Layer 1" xmlns="http://www.w3.org/2000/svg" viewBox="0 0 9.3 10.01"><title>calendar</title><path d="M38.22,23.12a.71.71,0,0,1-.72.71H29.64a.72.72,0,0,1-.72-.71V16a.73.73,0,0,1,.72-.72h.71v-.53a.91.91,0,0,1,.9-.9h.36a.9.9,0,0,1,.89.9v.53h2.14v-.53a.91.91,0,0,1,.9-.9h.36a.9.9,0,0,1,.89.9v.53h.71a.72.72,0,0,1,.72.72Zm-7-5.72H29.64V19h1.61Zm0,2H29.64v1.78h1.61Zm0,2.14H29.64v1.61h1.61Zm.54-6.79a.19.19,0,0,0-.18-.18h-.36a.18.18,0,0,0-.18.18v1.61a.18.18,0,0,0,.18.17h.36a.18.18,0,0,0,.18-.17Zm1.6,2.68H31.61V19h1.78Zm0,2H31.61v1.78h1.78Zm0,2.14H31.61v1.61h1.78Zm2.15-4.11H33.75V19h1.79Zm0,2H33.75v1.78h1.79Zm0,2.14H33.75v1.61h1.79Zm.53-6.79a.18.18,0,0,0-.17-.18h-.36a.18.18,0,0,0-.18.18v1.61a.18.18,0,0,0,.18.17h.36a.18.18,0,0,0,.17-.17ZM37.5,17.4H35.9V19h1.6Zm0,2H35.9v1.78h1.6Zm0,2.14H35.9v1.61h1.6Z" transform="translate(-28.92 -13.82)"/></svg>