<svg id="Layer_1" data-name="Layer 1" xmlns="http://www.w3.org/2000/svg" viewBox="0 0 5.21 10.01"><defs><style>.cls-1{fill:#fff;}</style></defs><title>dollar</title><path class="cls-1" d="M25.81,28.6v1a.18.18,0,0,1-.18.18h-.75a.19.19,0,0,1-.18-.18v-1a3.59,3.59,0,0,1-2.05-1,.2.2,0,0,1,0-.23l.58-.76a.16.16,0,0,1,.12-.06.15.15,0,0,1,.14.05,3,3,0,0,0,1.78.75c.55,0,1.14-.29,1.14-.92s-.66-.8-1.41-1.1c-1-.4-2.26-.9-2.26-2.3a2.22,2.22,0,0,1,2-2.1v-1a.19.19,0,0,1,.18-.18h.75a.18.18,0,0,1,.18.18v1a3,3,0,0,1,1.76.77.17.17,0,0,1,0,.21l-.45.82a.18.18,0,0,1-.13.09.19.19,0,0,1-.15,0,2.56,2.56,0,0,0-1.52-.6c-.71,0-1.2.35-1.2.86s.68.85,1.47,1.16c1,.4,2.19.85,2.19,2.19a2.27,2.27,0,0,1-2,2.24" transform="translate(-22.61 -19.74)"/></svg>