<svg id="Layer_1" data-name="Layer 1" xmlns="http://www.w3.org/2000/svg" viewBox="0 0 14 14"><defs><style>.cls-1{fill:#00a6ca;}.cls-2{fill:#fff;}</style></defs><title>envelope-in-circle</title><circle class="cls-1" cx="7" cy="7" r="7"/><path class="cls-2" d="M31,23.78l-2.77,2.07c-.38.29-1,.88-1.51.88h0c-.48,0-1.13-.59-1.51-.88l-2.76-2.07a2.52,2.52,0,0,1-1-1.62c0-.62.31-1.16.95-1.16h8.69A1,1,0,0,1,32,22a2.36,2.36,0,0,1-1,1.76M32,29a1,1,0,0,1-.95,1H22.36a1,1,0,0,1-.95-1V23.9a3.53,3.53,0,0,0,.6.56c1,.72,2,1.44,2.94,2.2a3.07,3.07,0,0,0,1.75.89h0a3.16,3.16,0,0,0,1.76-.89c1-.75,2-1.48,2.94-2.2A3.89,3.89,0,0,0,32,23.9Z" transform="translate(-19.82 -18.26)"/></svg>