<svg id="Layer_1" data-name="Layer 1" xmlns="http://www.w3.org/2000/svg" viewBox="0 0 9.4 8.89"><defs><style>.cls-1{fill:#fff;}</style></defs><title>key</title><path class="cls-1" d="M29.26,27c-.14,0-.6-.52-.72-.64l-.53.54,1.23,1.22a.56.56,0,0,1,.15.39.75.75,0,0,1-.67.66.54.54,0,0,1-.38-.15L24.6,25.29a3.48,3.48,0,0,1-2,.73A2,2,0,0,1,20.5,24a3.94,3.94,0,0,1,3.67-3.67,2,2,0,0,1,2,2.06,3.52,3.52,0,0,1-.73,2l2,2,.54-.54c-.12-.11-.64-.56-.64-.71a1.52,1.52,0,0,1,.64-.64.24.24,0,0,1,.13.05,19.62,19.62,0,0,1,1.76,1.84,1.52,1.52,0,0,1-.64.64m-5.18-5.65A1.08,1.08,0,0,0,23,22.45a1,1,0,0,0,.11.46,1.24,1.24,0,0,0-.46-.11,1.09,1.09,0,1,0,1,.61,1.07,1.07,0,1,0,.47-2" transform="translate(-20.5 -20.3)"/></svg>