<?xml version="1.0" encoding="utf-8"?>
<!-- Generator: Adobe Illustrator 21.0.2, SVG Export Plug-In . SVG Version: 6.00 Build 0)  -->
<svg version="1.1" id="Layer_1" xmlns="http://www.w3.org/2000/svg" xmlns:xlink="http://www.w3.org/1999/xlink" x="0px" y="0px"
	 viewBox="0 0 168 206" style="enable-background:new 0 0 168 206;" xml:space="preserve">
<style type="text/css">
	.st0{fill:#FFFFFF;}
	.st1{fill:none;stroke:#FFFFFF;stroke-width:10;}
	.st2{enable-background:new    ;}
</style>
<title>Group 4</title>
<desc>Created with Sketch.</desc>
<g id="Marketing-Site">
	<g id="A-Home-Page---Desktop" transform="translate(-308.000000, -1291.000000)">
		<g id="Group-4" transform="translate(308.000000, 1291.000000)">
			<g id="Group-6">
				<polyline id="Triangle" class="st0" points="138.6,83.2 56,134.3 56,32 				"/>
				<circle id="Oval-2" class="st1" cx="83.5" cy="83.5" r="78.5"/>
			</g>
			<g class="st2">
				<path class="st0" d="M14,198v-16.8c2.4,0,4.8,0,7.2,0c3.9,0,6,3,6,6.1c0,3.1-2.1,5.9-6,5.9h-3.6v4.8H14z M21.1,190.2
					c1.5,0,2.5-1.3,2.5-3c0-1.6-1-2.9-2.5-2.9c-1.2,0-2.4,0-3.6,0v5.8H21.1z"/>
				<path class="st0" d="M33.3,194.8h7v3.2H29.7v-16.8h3.6V194.8z"/>
				<path class="st0" d="M45.6,195.2l-1.3,2.8h-3.7v-0.5l7.7-16.5h1.7l7.7,16.5v0.5h-3.7l-1.3-2.8H45.6z M46.7,192.2h4.7l-2.3-5.5
					L46.7,192.2z"/>
				<path class="st0" d="M63.8,188l1.7-3.3l2-3.5h3.8v0.5l-5.8,9.6v6.7h-3.6v-6.7l-5.8-9.6v-0.5H60l2.1,3.6l1.6,3.2L63.8,188
					L63.8,188z"/>
				<path class="st0" d="M83.7,192l1.8-5.4l2.3-5.4h3.8v0.5l-7.2,16.4h-1.5l-7.2-16.4v-0.5h3.8l2.3,5.4L83.7,192L83.7,192L83.7,192z
					"/>
				<path class="st0" d="M101.1,195.1v2.9h-8.4v-2.9h2.4V184h-2.2v-2.8h8v2.8h-2.2v11.2H101.1z"/>
				<path class="st0" d="M110.4,181.2c5.4,0,8.2,4.1,8.2,8.3c0.1,4.3-2.8,8.4-8.2,8.4h-6.2v-16.8L110.4,181.2L110.4,181.2z
					 M110.3,194.8c3.1,0,4.7-2.5,4.7-5.2s-1.7-5.1-4.7-5.1h-2.6v10.3H110.3z"/>
				<path class="st0" d="M131.9,184.3h-6.7v3.4h6.2v3.1h-6.2v3.8h6.9v3.3h-10.5v-16.8h10.3L131.9,184.3L131.9,184.3z"/>
				<path class="st0" d="M142.7,198.3c-4.5,0-8.5-3-8.5-8.7c0-5.7,4.2-8.7,8.6-8.7c4.4,0,8.5,3,8.5,8.7
					C151.3,194.7,147.8,198.3,142.7,198.3z M142.8,195c2.6,0,5-1.7,5-5.4c0-3.6-2.4-5.4-5-5.4c-2.6,0-5,1.8-5,5.4
					C137.8,193.3,140.1,195,142.8,195z"/>
			</g>
		</g>
	</g>
</g>
</svg>
