<svg xmlns="http://www.w3.org/2000/svg" viewBox="0 0 8.81 7.15"><title>Asset 3</title><g id="Layer_2" data-name="Layer 2"><g id="Icons"><style>.cls-1{fill:#494949;}</style><path class="cls-1" d="M7.9,1.78a1.93,1.93,0,0,1,0,.24A5.1,5.1,0,0,1,2.77,7.15,5.14,5.14,0,0,1,0,6.34a3.24,3.24,0,0,0,.44,0,3.6,3.6,0,0,0,2.24-.77A1.8,1.8,0,0,1,1,4.34a1.87,1.87,0,0,0,.34,0,2,2,0,0,0,.48-.06A1.81,1.81,0,0,1,.36,2.54v0a1.74,1.74,0,0,0,.82.23A1.79,1.79,0,0,1,.62.33,5.15,5.15,0,0,0,4.34,2.22a2,2,0,0,1,0-.42A1.81,1.81,0,0,1,7.42.57,3.6,3.6,0,0,0,8.56.13a1.79,1.79,0,0,1-.79,1,3.72,3.72,0,0,0,1-.28,4,4,0,0,1-.91.93"/></g></g></svg>