<svg id="Layer_1" data-name="Layer 1" xmlns="http://www.w3.org/2000/svg" viewBox="0 0 8.7 8.49"><title>xIcon</title><path d="M29.35,23.64l-3.64,3.64a.74.74,0,0,1-.51.21.71.71,0,0,1-.5-.21l-3.64-3.64a.71.71,0,0,1-.21-.5.75.75,0,0,1,.21-.51l.42-.42A.7.7,0,0,1,22,22a.73.73,0,0,1,.51.2l2.71,2.72,2.72-2.72a.7.7,0,0,1,.5-.2.74.74,0,0,1,.51.2l.42.42a.74.74,0,0,1,.2.51.7.7,0,0,1-.2.5" transform="translate(-20.85 -22.01)"/><path d="M29.35,29.86l-.42.42a.75.75,0,0,1-.51.21.71.71,0,0,1-.5-.21L25.2,27.57l-2.71,2.71a.74.74,0,0,1-.51.21.71.71,0,0,1-.5-.21l-.42-.42a.71.71,0,0,1-.21-.5.74.74,0,0,1,.21-.51l3.64-3.64a.71.71,0,0,1,.5-.21.74.74,0,0,1,.51.21l3.63,3.64a.69.69,0,0,1,.21.51.7.7,0,0,1-.2.5" transform="translate(-20.85 -22.01)"/></svg>